<?xml version="1.0" encoding="utf-8"?>
<!-- Generator: Adobe Illustrator 21.0.0, SVG Export Plug-In . SVG Version: 6.00 Build 0)  -->
<svg version="1.1" id="Capa_1" xmlns="http://www.w3.org/2000/svg" xmlns:xlink="http://www.w3.org/1999/xlink" x="0px" y="0px"
	 viewBox="0 0 512 512" style="enable-background:new 0 0 512 512;" xml:space="preserve">
<style type="text/css">
	.st0{fill:#4C2F3F;}
</style>
<g id="_x30_18---Astronaut">
	<path id="Shape" class="st0" d="M487.5,193.4c-8.5-2.5-17.7-1.6-25.6,2.6l-26.7,12.6c1.5-14.8-6.7-28.8-20.3-34.7l-7.8-3.3
		c22.7-44.5,10-98.9-30.1-128.8s-95.9-26.3-132,8.3s-41.9,90.2-13.8,131.5l-24.9,5.5l-22.3-44.5c-4-8.1-11.1-14.3-19.7-17.1
		c-0.7-0.2-1.5-0.4-2.2-0.5V29.9c0-4.7-3.8-8.5-8.5-8.5H70.1c-5.2,0-9.8,3.1-11.8,7.9S57.4,39.5,61,43.2L81.8,64L61,84.8
		c-3.7,3.7-4.7,9.2-2.8,13.9c2,4.8,6.6,7.9,11.8,7.9h75v18.2c-10,2.6-18.2,9.5-22.5,18.9c-4.3,9.4-4.1,20.2,0.6,29.4l34.1,68.3
		c7,14.1,22.6,21.6,38,18.2l4.3-1c-2.9,6.9-5.5,13.7-7.8,20.3c-41-7.8-83.3,2.3-116.3,27.7c-10.9-20.9-36-29.7-57.6-20.3
		c-6.7,2.6-12.1,7.9-14.7,14.6c-2.6,6.7-2.3,14.2,1,20.7L28.2,370c5.8,11.6,17.6,18.9,30.5,18.9c9.7-0.7,19-4.3,26.5-10.4
		c22.4-15.5,50.2-21.1,76.8-15.4c-11.5,12.8-19.6,28.4-23.4,45.2c-23.1-11.7-45.7-7.4-60.5,15.9c-3.9,6-5.1,13.4-3.3,20.4
		c1.8,7,6.5,12.8,12.9,16.2c51.2,26.9,52.4,29.2,63.7,29.2c13.6,0,25.9-8.1,31.3-20.6l4.4-10c19-53.2,83.1-54.1,85.8-54.1
		c5.6-0.3,11.1-1.5,16.3-3.6c15.8,7.9,24.6,14.5,40.2,10.2c39,30.9,83.9,31.9,116.7-7.3c13.2-15.1,18.8-35.3,15.3-55
		c-4.6-25.6-23.2-48.5-42.7-65.6c12.9-0.5,25.6-4,36.9-10.2l38.2-17.7c12.1-6.6,19.1-19.8,17.7-33.6
		C510.3,208.8,500.7,197.3,487.5,193.4L487.5,193.4z M407.7,189.5c4.2,1.9,7.4,5.3,9,9.6c1.6,4.3,1.4,9-0.5,13.2l-1.5,3.4
		c-7.4,0-10.2-4-27.8-18.6c3.9-3.7,7.4-7.7,10.5-11.9L407.7,189.5z M383.1,71.3c26.4,34.4,22.8,83-8.2,113.2s-79.8,32.3-113.4,4.9
		c86,18.5,148.1-58.1,94.3-108.3c-24.1-22.6-61.7-29.8-94.5-22.7C279,43.6,302,36.6,324.9,39.1C347.8,41.5,368.8,53.1,383.1,71.3
		L383.1,71.3z M240.4,163.2c-1-1.9-2.1-3.8-3-5.7c-10.1-23.6-9.1-50.5,2.7-73.2c47.2-27.8,118.3-3.2,118.3,39.4
		S288.7,191.2,240.4,163.2z M80.3,89.6L96.9,73c2.4-2.4,3.8-5.6,3.8-9c0-3.4-1.4-6.7-3.8-9L80.3,38.4h64.8v51.2H80.3z M191.2,243.2
		c-7.6,1.7-15.4-2-18.9-9l-34.1-68.3c-3-6.2-2.1-13.5,2.5-18.7c4.5-5.2,11.7-7.2,18.2-5c4.3,1.4,7.9,4.5,9.9,8.5l25.6,50.3
		c1.7,3.5,5.7,5.4,9.5,4.5l26.1-5.8c-6.4,10.6-14.1,24.2-21.6,39.8L191.2,243.2z M76.8,363.9c-9.9,6-14.3,9.6-22.6,7.3
		c-4.6-1.2-8.4-4.3-10.7-8.4L19.4,314c-1.1-2.1-1.2-4.6-0.4-6.9c0.8-2.2,2.6-4,4.8-4.9c7.4-3.3,15.9-3.3,23.3,0
		c8,4.6,14,12,17.1,20.7c0.9,2.7,3.1,4.8,5.9,5.5s5.7,0,7.9-1.9c29.5-26.7,69.6-38.2,108.7-31.3c-4.9,17-7.5,34.6-7.9,52.3l-2.4,2
		C159.9,343.6,122.1,335.5,76.8,363.9L76.8,363.9z M313.2,394.5l-6-3.1c14.8-13.9,24-32.9,25.6-53.2c3.8-26.3,20.4-51.2,35.5-68.3
		c5.6,3.5,11.5,6.4,17.7,8.5l-49.9,107.8c-1.9,4.2-5.5,7.5-9.8,9c-4.4,1.5-9.2,1.3-13.3-0.8H313.2z M411.3,358.5
		c0.9,4.9-0.7,9.9-4.2,13.4c-8.5,10.3-15,11.5-19.4,11.5c-9.5-1.2-18.4-5.2-25.6-11.6l23-49.7c14.9,13.7,24.5,26.5,26,36.4H411.3z
		 M433.4,393.7c-24.6,29.4-56.5,30.7-87.7,8.5c3.8-4.4,6.6-9.4,8.5-14.8c24.7,17.9,46.8,17.9,65.9-4.6c21.5-25.6-2.4-55.1-28.1-76.8
		l7.5-16.1c36.1,29.1,62.9,68.7,33.7,103.9H433.4z M494.4,230.9c-1.1,4.2-3.9,7.7-7.7,9.9l-38.4,17.7c-24.3,13.4-54.3,10.7-75.9-6.8
		c-3.5-2.9-8.7-2.5-11.8,0.9c-17.8,19.5-40.1,49.9-44.9,83.5c-4.4,30.9-18.5,43.5-29.6,48.7c-4.1,2-8.6,3.1-13.1,3.4
		c-3.2,0-78.8,0.8-101.7,64.9l-4.1,9.6c-1.8,4.4-5.5,7.8-9.9,9.5c-4.5,1.6-9.5,1.3-13.7-0.9l-47.8-25.6c-2.1-1.1-3.7-3.1-4.3-5.4
		c-0.6-2.3-0.2-4.8,1.2-6.8c3.7-7.1,10.4-12.2,18.3-13.9c10.3-0.4,20.5,3,28.5,9.6c2.4,2.1,5.9,2.7,8.9,1.5c3-1.2,5.1-4,5.3-7.2
		c7.8-77.7,110.9-94.7,112.2-94.7c3-0.5,5.6-2.5,6.8-5.4c1.1-2.9,0.6-6.1-1.3-8.5c-1.9-2.4-5-3.6-8-3.2c-23.5,4.2-46.2,12.4-67,24.2
		c4-45.7,27.7-95.6,52.4-134.7c35.1,30.6,86.6,33.5,124.9,7l20.1,17.1c7.4,6.3,17.2,9,26.8,7.5c5.3,0,17.1-6.2,49.2-21.1
		c6-3.2,13.3-2.6,18.6,1.6c5.3,4.2,7.7,11.2,5.9,17.7L494.4,230.9z"/>
	<path id="Shape_1_" class="st0" d="M298.7,89.6c0-4.7-3.8-8.5-8.5-8.5c-17.7,0-51.2,8.5-51.2,42.7c0,4.7,3.8,8.5,8.5,8.5
		c4.7,0,8.5-3.8,8.5-8.5c0-25.1,32.6-25.6,34.1-25.6C294.8,98.1,298.7,94.3,298.7,89.6z"/>
	<path id="Shape_2_" class="st0" d="M59.7,174.9c-4.7,0-8.5,3.8-8.5,8.5v8.5h-8.5c-4.7,0-8.5,3.8-8.5,8.5s3.8,8.5,8.5,8.5h8.5v8.5
		c0,4.7,3.8,8.5,8.5,8.5s8.5-3.8,8.5-8.5v-8.5h8.5c4.7,0,8.5-3.8,8.5-8.5s-3.8-8.5-8.5-8.5h-8.5v-8.5
		C68.3,178.8,64.4,174.9,59.7,174.9z"/>
	<path id="Shape_3_" class="st0" d="M290.1,456.5h-8.5V448c0-4.7-3.8-8.5-8.5-8.5s-8.5,3.8-8.5,8.5v8.5H256c-4.7,0-8.5,3.8-8.5,8.5
		s3.8,8.5,8.5,8.5h8.5v8.5c0,4.7,3.8,8.5,8.5,8.5s8.5-3.8,8.5-8.5v-8.5h8.5c4.7,0,8.5-3.8,8.5-8.5S294.8,456.5,290.1,456.5z"/>
	<path id="Shape_4_" class="st0" d="M452.3,72.5c4.7,0,8.5-3.8,8.5-8.5v-8.5h8.5c4.7,0,8.5-3.8,8.5-8.5s-3.8-8.5-8.5-8.5h-8.5v-8.5
		c0-4.7-3.8-8.5-8.5-8.5s-8.5,3.8-8.5,8.5v8.5h-8.5c-4.7,0-8.5,3.8-8.5,8.5s3.8,8.5,8.5,8.5h8.5V64
		C443.7,68.7,447.6,72.5,452.3,72.5z"/>
</g>
</svg>
