<?xml version="1.0" encoding="utf-8"?>
<!-- Generator: Adobe Illustrator 21.0.0, SVG Export Plug-In . SVG Version: 6.00 Build 0)  -->
<svg version="1.1" id="Layer_1" xmlns="http://www.w3.org/2000/svg" xmlns:xlink="http://www.w3.org/1999/xlink" x="0px" y="0px"
	 viewBox="0 0 512 512" style="enable-background:new 0 0 512 512;" xml:space="preserve">
<style type="text/css">
	.st0{fill:#4C2F3F;}
</style>
<g>
	<path class="st0" d="M437,75C388.7,26.6,324.4,0,256,0S123.3,26.6,75,75S0,187.6,0,256s26.6,132.7,75,181s112.6,75,181,75
		s132.7-26.6,181-75s75-112.6,75-181S485.4,123.3,437,75L437,75z M470.7,320H360c-6.4,0-12.4-2.5-17-7c-4.5-4.5-7-10.6-7-17
		c0-13.2,10.8-24,24-24h32c30.9,0,56-25.1,56-56c0-15-5.8-29-16.4-39.6S407,160,392,160c-6.4,0-12.4-2.5-17-7c-4.5-4.5-7-10.6-7-17
		c0-13.2,10.8-24,24-24h35.4c32.8,39,52.6,89.2,52.6,144C480,278.2,476.7,299.7,470.7,320z M53.6,160H200c6.4,0,12.4,2.5,17,7
		c4.5,4.5,7,10.6,7,17c0,13.2-10.8,24-24,24h-32c-30.9,0-56,25.1-56,56c0,15,5.8,29,16.4,39.6S153,320,168,320c6.4,0,12.4,2.5,17,7
		c4.5,4.5,7,10.6,7,17c0,13.2-10.8,24-24,24H62.1C43,335,32,296.8,32,256C32,221.7,39.8,189.1,53.6,160z M256,480
		c-68.7,0-130.3-31.1-171.4-80H168c30.9,0,56-25.1,56-56c0-15-5.8-29-16.4-39.6S183,288,168,288c-6.4,0-12.4-2.5-17-7
		c-4.5-4.5-7-10.6-7-17c0-13.2,10.8-24,24-24h32c30.9,0,56-25.1,56-56c0-15-5.8-29-16.4-39.6S215,128,200,128H72.3
		C112.8,70,180,32,256,32c52.2,0,100.3,18,138.4,48H392c-30.9,0-56,25.1-56,56c0,15,5.8,29,16.4,39.6S377,192,392,192
		c6.4,0,12.4,2.5,17,7c4.5,4.5,7,10.6,7,17c0,13.2-10.8,24-24,24h-32c-30.9,0-56,25.1-56,56c0,15,5.8,29,16.4,39.6S345,352,360,352
		h98.4C422.3,427.6,345.2,480,256,480z"/>
</g>
</svg>
