<?xml version="1.0" encoding="utf-8"?>
<!-- Generator: Adobe Illustrator 21.0.0, SVG Export Plug-In . SVG Version: 6.00 Build 0)  -->
<svg version="1.1" id="Capa_1" xmlns="http://www.w3.org/2000/svg" xmlns:xlink="http://www.w3.org/1999/xlink" x="0px" y="0px"
	 viewBox="0 0 512 512" style="enable-background:new 0 0 512 512;" xml:space="preserve">
<style type="text/css">
	.st0{fill:#4C2F3F;}
</style>
<path class="st0" d="M350.3,163.8c-4-45.3-24.3-88.4-57.2-120.1l-44.4-43l-44.4,43c-32.8,31.8-53.2,74.8-57.2,120.1
	c-0.5,3.3-0.7,34.1-0.7,34.1L7.3,431.7h199c0,0,0,0,0,0.1c0,26.5,42.4,80.3,42.4,80.3s42.4-53.8,42.4-80.3c0,0,0,0,0-0.1h199
	L351,197.8C351,197.8,350.8,167.1,350.3,163.8L350.3,163.8z M225.1,65.2l23.6-22.8l23.6,22.8c11.4,11.1,21.1,23.8,28.7,37.6
	c-15.7-7.5-33.6-11.5-52.3-11.5s-36.6,4-52.3,11.5C204,89,213.6,76.3,225.1,65.2L225.1,65.2z M146.3,341.6H95.8l50.6-85.1V341.6z
	 M60.1,401.7l17.9-30h68.4v30H60.1z M261,431.7c0,7.6-5.7,19.8-12.4,31c-6.7-11.2-12.4-23.4-12.4-31c0,0,0,0,0-0.1L261,431.7
	C261,431.7,261,431.7,261,431.7z M321,401.7h-30v-65.2h-30v65.2h-24.7v-65.2h-30v65.2h-30c0,0,0.2-229.6,0.5-233.7
	c1.8-11.1,8.4-21.6,19.3-30c13.9-10.7,32.6-16.7,52.6-16.7s38.7,5.9,52.6,16.7c10.8,8.4,17.5,18.9,19.3,30
	C320.9,172,321,401.7,321,401.7L321,401.7z M351,401.7v-30h68.4l17.9,30H351z M401.6,341.6H351v-85.1L401.6,341.6z"/>
<path class="st0" d="M248.7,163.2c-25.4,0-46.1,20.7-46.1,46.1c0,25.4,20.7,46.1,46.1,46.1c25.4,0,46.1-20.7,46.1-46.1
	C294.8,183.9,274.1,163.2,248.7,163.2L248.7,163.2z M248.7,225.4c-8.9,0-16.1-7.2-16.1-16.1c0-8.9,7.2-16.1,16.1-16.1
	s16.1,7.2,16.1,16.1C264.8,218.2,257.6,225.4,248.7,225.4L248.7,225.4z"/>
</svg>
