<svg xmlns="http://www.w3.org/2000/svg" viewBox="0 0 114.61 76.05"><defs><style>.cls-1{fill:#070308;}</style></defs><title>Recurso 1</title><g id="Capa_2" data-name="Capa 2"><g id="Capa_1-2" data-name="Capa 1"><path class="cls-1" d="M80.41,48.48a4,4,0,0,0-.59,0A4.84,4.84,0,0,0,75.95,54a4.67,4.67,0,0,0,4.47,4.24,4.16,4.16,0,0,0,.59,0,4.84,4.84,0,0,0,3.87-5.5A4.67,4.67,0,0,0,80.41,48.48Z"/><path class="cls-1" d="M86.59,19.09a13.08,13.08,0,0,0-7.68-2.2,19,19,0,0,0-2.71.2,13.57,13.57,0,0,0-8,4.33,10.16,10.16,0,0,0-2.81,7.88,3.41,3.41,0,0,0,3.46,3.22,4.4,4.4,0,0,0,.61,0c2.49-.36,3-2.22,3.54-4,.59-2,1.15-4,4.36-4.45a6.75,6.75,0,0,1,1-.07c2.32,0,3.75,1.33,4,3.73s-1.43,4.23-3.25,6.22c-2,2.23-4.35,4.76-3.91,8.35a4.52,4.52,0,0,0,1.06,2.43,3.21,3.21,0,0,0,2.46,1.13,3.66,3.66,0,0,0,.54,0c2.6-.38,3-2,3.3-3.6a8.44,8.44,0,0,1,.52-1.78,12.27,12.27,0,0,1,2.31-2.76c2.5-2.54,5.93-6,5.29-11.15A10.17,10.17,0,0,0,86.59,19.09Z"/><path class="cls-1" d="M114.56,61.82l-7-56.72A5.61,5.61,0,0,0,102.21,0a5,5,0,0,0-.72.05L49.21,7.62a5.82,5.82,0,0,0-4.66,6.61l.4,3.25L10.66,12.1a3.94,3.94,0,0,0-.6,0A4.36,4.36,0,0,0,5.89,16L0,59.9a4.84,4.84,0,0,0,.79,3.39,4.13,4.13,0,0,0,2.77,1.78l40.5,6.35a4.14,4.14,0,0,0,.6,0,4.35,4.35,0,0,0,4.16-3.91L50,58.8l1.49,12.14a5.61,5.61,0,0,0,5.37,5.11,5.16,5.16,0,0,0,.72-.05l52.28-7.57a5.31,5.31,0,0,0,3.59-2.26A6.2,6.2,0,0,0,114.56,61.82ZM45.41,67a.73.73,0,0,1-.81.65L4.11,61.32a.7.7,0,0,1-.47-.3.83.83,0,0,1-.13-.58L9.35,16.51a.74.74,0,0,1,.7-.66h.1l35.27,5.53L48.34,45Zm64.5-3.81a.91.91,0,0,1-.61.38L57,71.16a.94.94,0,0,1-1-.86L49,13.59a1,1,0,0,1,.79-1.12l52.28-7.57h.13a1,1,0,0,1,.91.87l7,56.72A1.07,1.07,0,0,1,109.91,63.21Z"/><path class="cls-1" d="M36.09,28.58a12.16,12.16,0,0,0-6.69-3.13,9.66,9.66,0,0,0-1.51-.12A10,10,0,0,0,22,27.24a7.28,7.28,0,0,0-3.05,4.84,2.8,2.8,0,0,0,2.42,3.31,3.58,3.58,0,0,0,.55,0c1.53,0,2.22-1.13,2.88-2.23s1.44-2.39,3.3-2.39a5.43,5.43,0,0,1,.82.07c2.2.34,3.31,1.76,3,3.88-.24,1.82-1.89,2.83-3.63,3.9-2,1.2-4.18,2.56-4.55,5.34a3.6,3.6,0,0,0,.4,2.21,2.63,2.63,0,0,0,1.95,1.34,4.31,4.31,0,0,0,.64.05h0c1.51,0,2-1,2.53-2A6.13,6.13,0,0,1,30,44.42a8.94,8.94,0,0,1,2.26-1.53c2.36-1.32,5.6-3.13,6.13-7.11A8.24,8.24,0,0,0,36.09,28.58Z"/><path class="cls-1" d="M26,49.74a3.22,3.22,0,0,0-.5,0A3.63,3.63,0,0,0,22,53a3.76,3.76,0,0,0,3,4.3,3.07,3.07,0,0,0,.5,0A3.62,3.62,0,0,0,28.92,54,3.77,3.77,0,0,0,26,49.74Z"/></g></g></svg>