<svg xmlns="http://www.w3.org/2000/svg" viewBox="0 0 91.72 56.1"><defs><style>.cls-1{fill:#fff;}</style></defs><title>Recurso 1</title><g id="Capa_2" data-name="Capa 2"><g id="Capa_1-2" data-name="Capa 1"><rect x="4.08" y="13.04" width="35.07" height="36.09" transform="translate(3.77 -2.31) rotate(6.69)"/><rect x="41.1" y="4.32" width="45.62" height="47.09" transform="translate(-3.09 8.58) rotate(-7.5)"/><path class="cls-1" d="M64.35,35.76a3.43,3.43,0,0,0-.47,0,3.61,3.61,0,1,0,.47,0Z"/><path class="cls-1" d="M69.3,14.08a11.12,11.12,0,0,0-6.15-1.62A16.47,16.47,0,0,0,61,12.6a11.16,11.16,0,0,0-6.41,3.2,7.15,7.15,0,0,0-2.25,5.81A2.65,2.65,0,0,0,55.1,24a3.82,3.82,0,0,0,.49,0c2-.27,2.42-1.64,2.84-3,.47-1.51.92-2.94,3.49-3.28a5.85,5.85,0,0,1,.76-.05,3,3,0,0,1,3.24,2.75c.23,1.74-1.14,3.12-2.6,4.59-1.63,1.65-3.48,3.51-3.13,6.16A3.21,3.21,0,0,0,61,33a2.67,2.67,0,0,0,2,.83,3.18,3.18,0,0,0,.43,0c2.08-.28,2.37-1.49,2.64-2.66a5.87,5.87,0,0,1,.42-1.31,9.26,9.26,0,0,1,1.85-2c2-1.87,4.74-4.43,4.24-8.23A7.39,7.39,0,0,0,69.3,14.08Z"/><path d="M91.68,45.61,86.1,3.77A4.35,4.35,0,0,0,81.8,0a4.3,4.3,0,0,0-.58,0L39.38,5.62a4.35,4.35,0,0,0-3.73,4.88L36,12.89l-27.44-4a3.37,3.37,0,0,0-3.82,2.85L0,44.19A3.37,3.37,0,0,0,2.89,48l32.41,4.68a3.59,3.59,0,0,0,.48,0,3.38,3.38,0,0,0,3.33-2.89L40,43.38l1.19,9a4.35,4.35,0,0,0,4.3,3.77,4.47,4.47,0,0,0,.58,0L88,50.48a4.34,4.34,0,0,0,3.73-4.87ZM36.34,49.43a.57.57,0,0,1-.65.48L3.29,45.24A.56.56,0,0,1,2.91,45a.57.57,0,0,1-.11-.43L7.48,12.18A.57.57,0,0,1,8,11.69h.08l28.23,4.08,2.33,17.44ZM88,46.63a.73.73,0,0,1-.49.28L45.64,52.49a.74.74,0,0,1-.83-.63L39.23,10a.74.74,0,0,1,.63-.83L81.7,3.61h.1a.74.74,0,0,1,.73.64l5.58,41.84A.74.74,0,0,1,88,46.63Z"/><path class="cls-1" d="M28.88,21.09a10.1,10.1,0,0,0-5.35-2.31,8.37,8.37,0,0,0-1.21-.09A8.48,8.48,0,0,0,17.6,20.1a5.33,5.33,0,0,0-2.44,3.57,2,2,0,0,0,.45,1.68,2.41,2.41,0,0,0,1.49.76,3.1,3.1,0,0,0,.44,0c1.23,0,1.77-.84,2.31-1.65a2.91,2.91,0,0,1,2.64-1.76,4.71,4.71,0,0,1,.66,0c1.76.25,2.65,1.3,2.42,2.86C25.36,27,24,27.74,22.65,28.53c-1.57.88-3.34,1.89-3.64,3.94a2.48,2.48,0,0,0,.32,1.63,2.11,2.11,0,0,0,1.56,1,3.74,3.74,0,0,0,.51,0h0c1.21,0,1.63-.74,2-1.47a4.47,4.47,0,0,1,.59-.89,7.2,7.2,0,0,1,1.81-1.13c1.89-1,4.48-2.31,4.9-5.24A5.79,5.79,0,0,0,28.88,21.09Z"/><path class="cls-1" d="M20.78,36.7l-.4,0a2.8,2.8,0,0,0-.4,5.57,2.66,2.66,0,0,0,.4,0,2.8,2.8,0,0,0,.4-5.57Z"/></g></g></svg>