<svg xmlns="http://www.w3.org/2000/svg" viewBox="0 0 95.02 40.9"><defs><style>.cls-1{fill:#4c2f3f;}</style></defs><title>Recurso 2</title><g id="Capa_2" data-name="Capa 2"><g id="Capa_1-2" data-name="Capa 1"><circle class="cls-1" cx="47.42" cy="7.1" r="7.1"/><path class="cls-1" d="M66.72,16.9c.1-.1.2-.3.3-.4H28.12a1.38,1.38,0,0,1,.3.4l3.1,5.1h8.2V38.3a2.58,2.58,0,0,0,2.6,2.6h10.5a2.65,2.65,0,0,0,2.6-2.6V22h8.4Z"/><circle class="cls-1" cx="18.02" cy="7.1" r="7.1"/><path class="cls-1" d="M26.82,17.9a2.77,2.77,0,0,0-2.3-1.3h-13a2.65,2.65,0,0,0-2.3,1.3L.42,32.4a2.87,2.87,0,0,0,.4,3.5A2.77,2.77,0,0,0,5,35.3l5.1-8.5V38.2a2.65,2.65,0,0,0,2.6,2.6h10.5a2.65,2.65,0,0,0,2.6-2.6V26.8l5.1,8.5a2.77,2.77,0,0,0,2.3,1.3,3.32,3.32,0,0,0,1.6-.5,2.91,2.91,0,0,0,.7-3.8Z"/><circle class="cls-1" cx="77.02" cy="7.1" r="7.1"/><path class="cls-1" d="M94.62,32.3l-8.7-14.5a2.77,2.77,0,0,0-2.3-1.3h-13a2.65,2.65,0,0,0-2.3,1.3l-8.8,14.6a2.87,2.87,0,0,0,.4,3.5,2.77,2.77,0,0,0,4.2-.6l5.1-8.5V38.2a2.65,2.65,0,0,0,2.6,2.6h10.5a2.65,2.65,0,0,0,2.6-2.6V26.8L90,35.3a2.77,2.77,0,0,0,2.3,1.3,3.32,3.32,0,0,0,1.6-.5A2.91,2.91,0,0,0,94.62,32.3Z"/></g></g></svg>